<?xml version="1.0" encoding="utf-8"?>
<!-- Generator: Adobe Illustrator 27.3.1, SVG Export Plug-In . SVG Version: 6.00 Build 0)  -->
<svg version="1.1" id="Layer_1" xmlns="http://www.w3.org/2000/svg" xmlns:xlink="http://www.w3.org/1999/xlink" x="0px" y="0px"
	 viewBox="0 0 432 432" style="enable-background:new 0 0 432 432;" xml:space="preserve">
<style type="text/css">
	.st0{display:none;fill:#00112A;stroke:#FFFFFF;stroke-miterlimit:10;}
	.st1{fill:#043F78;}
	.st2{fill:#3F80A8;}
	.st3{fill:#0AFFF8;}
	.st4{fill:#DF6E00;}
	.st5{fill:#FF0000;}
	.st6{fill:#0013FF;}
	.st7{fill:#FFFFFF;}
</style>
<rect class="st0" width="432" height="432"/>
<g>
	<g>
		<path class="st1" d="M347,179.6c0-9.4,0-18.7,0-28.1c0-2.7,1.3-4.8,2.4-7.1c4.8-9.5,12.5-14.9,23.2-15.1
			c16.9-0.3,33.8-0.1,50.7-0.1c2.7,0,2.8,0.1,2.8,2.9c0,17.3,0.1,34.6,0,51.9c0,3.9-0.6,7.7-2.6,11c-4.8,7.8-11.1,13.6-20.8,14.3
			c-2.6,0.2-5.3,0.2-7.9,0.2c-14.5,0-29,0-43.6,0c-4.5,0-4.1,0.4-4.1-4C347,197,347,188.3,347,179.6C347,179.6,347,179.6,347,179.6z
			"/>
		<path class="st2" d="M294,269.5c0-8.1,0.1-16.1,0-24.2c-0.3-13.8,11.4-26.2,25.8-26c16.5,0.2,33,0,49.5,0c0.8,0,1.6,0,2.4,0.1
			c0.9,0.1,1.4,0.6,1.5,1.5c0,0.8,0,1.6,0,2.4c0,16.5,0,33,0,49.6c0,13.2-8.5,23.5-21.4,26.3c-1.6,0.3-3.1,0.4-4.7,0.4
			c-16.4,0-32.8,0-49.1,0c-0.5,0-1.1,0-1.6,0c-1.7,0.1-2.4-0.7-2.3-2.3c0.1-4,0-7.9,0-11.9C294,280.1,294,274.8,294,269.5z"/>
		<path class="st3" d="M282.3,188.3c0-5.4,0.1-10.8,0-16.2c-0.2-10,7.7-18,17.7-18.1c11.5-0.1,23,0,34.5,0c2.8,0,2.9,0.1,2.9,2.8
			c0,11.5-0.2,23,0.1,34.5c0.2,9.6-8.8,18.5-17.9,18.3c-11.5-0.1-23,0-34.5,0.1c-2,0-2.7-0.6-2.7-2.7
			C282.4,200.7,282.3,194.5,282.3,188.3z"/>
	</g>
</g>
<g>
	<path class="st5" d="M207.3,304.5c-0.1-1.2-0.7-1.6-1.9-1.1c-3.3,1.3-6.7,2-10.2,2.3c-3.4,0.2-6.7,0.1-9.9-1
		c-5.6-1.8-9.5-5.6-12.2-10.7c-3.2-6.1-3.6-12.8-4.4-19.3c-0.6-4.3-1-8.6-1.5-12.8c-0.5-3.9-1-7.8-1.5-11.6
		c-0.6-5.5-1.1-11.1-1.7-16.6c-0.8-7.8-1.7-15.6-2.6-23.5c-0.8-6.9-1.3-13.9-2.5-20.8c-2.3-13.1-7.9-24.7-17-34.4
		c-5.3-5.7-11.6-10.2-18.6-13.7c-6.3-3.1-12.7-5.6-19.6-7c-6.3-1.3-12.6-1.3-18.9-1.4c-4.2,0.2-8.4,0.3-12.5,0.8
		c-11.2,1.2-21.1,5.4-29.6,12.8c-4.7,4.2-8.1,9.2-10.3,15.2c-1.2,3.4-0.4,6.1,2.3,8.5c2.5,2.2,8,1.5,8.9-2.1
		c0.3-1.2,1.2-2.4,1.9-3.5c9.6-14,23-21.8,39.4-24.8c2.9-0.5,5.9-0.9,8.9-0.8c3.2,0.1,6.3,0.9,9.5,1.4c9.1,1.3,16.4,5.8,22.1,13
		c4.1,5.2,7,11,7.7,17.5c1,9.3,1.4,18.7,1.9,28.1c0.3,6.8,0.2,13.5,0.4,20.3c0.2,6.7,0.3,13.4,0.7,20c0.4,6.8,1,13.5,1.5,20.2
		c0.3,3.5,0.3,7,0.9,10.5c1.3,9.1,3.8,17.9,8.5,26c2.9,5.1,6.3,9.6,11.1,13.2c7.5,5.6,16.1,7.5,25.3,6.9c4.4-0.3,8.8-0.9,13.1-1.5
		c3.3-0.4,6.7-0.9,10-1.5c0.4-0.1,1.1-0.7,1.1-1.1C207.5,309.6,207.4,307.1,207.3,304.5z"/>
	<path class="st5" d="M128.2,290.6c-1-0.7-2-1.5-3.1-2.1c-1-0.6-2.1-0.6-3.1,0.3c-0.7,0.6-1.4,1.1-2.1,1.7
		c-7.5,6.5-15.9,11.3-25.7,13.6c-9.8,2.3-19,0.8-27.7-3.8c-6.4-3.4-11.4-8.2-15.4-14.3c-3.2-4.9-5.7-10.1-7.2-15.6
		c-1-3.6-1.5-7.3-1.9-11c-0.7-5.2-0.4-10.4,0.6-15.5c1-5.2,3.4-9.8,6.1-14.3c6.1-10.2,14.8-17.4,26.3-20.5
		c9.1-2.5,18.2-2.3,27.1,1.2c5.5,2.1,10.5,5,15.5,8.1c1,0.6,1.9,1.6,2.9,2.3c0.3,0.2,0.9,0.1,1.2-0.1c1-0.7,2-1.4,2.9-2.2
		c1.9-1.6,2.1-2.6,0.6-4.6c-1-1.4-2.2-2.8-3.5-3.8c-3.4-2.5-6.9-5.1-10.5-7.2c-4-2.3-8-4.6-12.3-6.2c-8-3-16.5-3.8-25-4
		c-3.5,0.3-7,0.3-10.5,0.8c-3.8,0.6-7.8,1.2-11.4,2.5c-4.2,1.5-8.3,3.5-12.3,5.8c-5.3,3-10,6.9-13.8,11.6
		c-6.3,7.7-10.1,16.6-12.7,26.2c-2.1,8-2.7,16.1-1.8,24.2c0.9,7.6,2.9,14.9,6.1,21.8c3,6.4,6.7,12.2,11.6,17.3
		c5.5,5.8,12.1,10,19.5,12.9c6.8,2.7,13.8,3.8,21,3.9c5.1,0,10.1-0.5,15.1-1.4c8.9-1.5,17.6-3.9,25.6-8c3.2-1.6,6-3.8,9-5.8
		c1.1-0.8,2-1.9,3.1-2.9c2.8-2.4,4.5-5.6,6.2-8.8C129.1,291.8,129,291.1,128.2,290.6z"/>
</g>
<g>
	<path class="st6" d="M127.9,257.3c-1.2-1.1-0.6-2.4-0.7-3.7c-0.2-2.9-0.1-5.9-1-8.7c-3.7-12-11.7-20.3-23.5-24.5
		c-3.3-1.2-6.7-2.1-10.1-2.4c-5.3-0.5-10.4,0.8-15.4,2.4c-9.5,2.8-15.9,9.3-20.6,17.7c-0.4,0.8,0.1,1.8,0.9,2.1
		c0.9,0.4,1.9,0.3,2-0.8c0.3-3.1,2.7-4.9,3.9-7.4c0.3-0.7,1.1-1.1,1.7-1.7c1.7-1.6,3.5-2.9,5.7-3.5c0.5-0.1,1,0,1.5,0
		c-0.1,0.5-0.1,1-0.2,1.5c-0.5,1.3-1.2,2.6-0.6,4.5c0.5-0.8,0.8-1.4,1.2-2c0.4-0.8,0.8-1.6,2-1.3c0.9,0.3,0.9-0.4,1.1-1.1
		c0.1-0.4,0.4-0.9,0.8-1.1c1.1-0.5,2.2-0.8,3.4-1.3c3-1.2,6-2.4,9-3.5c1.1-0.4,1.6-1.1,2-2.1c0.1-0.3,0.3-0.7,0.6-0.8
		c2.9-1.2,6,0.3,7.6,2.5c0.7,1,0.2,1.9-1,2.4c-1.2,0.5-2.4,1.1-3.5,1.9c-1.3,0.9-2.8,0.8-3.8-0.5c-1.5-2-2.7-1.9-3.8,0.4
		c1.1,0.8,1.3,2,1,3.2c-0.3,1.2-1.4,0.7-2.1,0.7c-0.8,0-0.5-0.7-0.3-1.2c0.1-0.6,0-1.2,0-1.8c-0.4,0-0.5,0-0.5,0
		c-1.3,1.3-2.6,2.7-4.5,3.4c-0.1,0-0.1,0.4-0.3,0.6c-0.4,0.6-0.8,1.4-1.4,1.8c-1.7,0.9-3.3,2.2-5.3,2.6c-2,0.4-2.3,1.4-1.6,3.4
		c0.2,0.5,0.3,1,0.4,1.5c0.2,1,0.1,1.8-0.8,2.6c-0.9,0.8-1.7,0.5-2.6,0.2c-1.3-0.5-2.5-0.9-3.9-1.4c0,0.4-0.1,0.6,0,0.7
		c1.2,1.4,0.3,2.8-0.1,4.2c-1,3.5-1.2,7.1,0.4,10.6c0.9,1.9,0.9,1.9-0.9,3.1c1.2,2,1.2,2,2.4,1.4c0.3,0.4,0.6,0.9,0.8,1.3
		c0.1-0.1,0.2-0.1,0.4-0.2c-0.1-0.4-0.3-0.8-0.3-1.2c0.1-0.7,0.1-1.8,0.6-2.1c1.5-0.8,5.7,0.3,6.8,1.6c0.2,0.3,0.3,0.7,0.4,1.1
		c-0.4,0.1-0.7,0.3-1.1,0.3c-0.7,0.1-1.4,0-2.1,0c0,0.2-0.1,0.3-0.1,0.5c0.7,0.2,1.4,0.5,2.1,0.7c0.6,0.2,1.5,0.1,1.9,0.5
		c1.6,1.7,3.3,3.4,3.1,6c-0.2,2.8,0.5,5.4,2.4,7.6c0.5,0.6,1.1,1.3,1.5,2c1.3,2.2,4.3,3.7,6.9,3.3c0.6-0.1,0.9-0.2,1.1-1
		c0.9-3.1,2.1-6,4.8-8.1c1-0.8,1.4-1.7,1.1-3c-0.2-1.4-0.5-2.7-0.4-4.1c0-0.6,0.6-1.5,1.1-1.7c1.6-0.7,3.2-1.2,4.9-1.7
		c0.6-0.2,1.2-0.3,1.8-0.4c0-0.1,0-0.2-0.1-0.3c-0.5,0.1-1.1,0.2-1.6,0.3c0.1-1.3,0.2-2.6,0.2-3.8c0-1-0.4-1.7-1.7-1.4
		c-1.2,0.2-2.2-0.2-2.9-1.4c-1.8-3-3.9-5.8-4.9-9.2c-0.5-1.7-3.3-3.1-5-2.9c-1.2,0.2-2.4,0.3-3.6,0.2c-1.5-0.1-3-0.3-4.4-0.9
		c-1.1-0.5-2-1.6-2.9-2.5c-0.9-0.9-1-2.4-0.2-3.1c1.1-0.9,3.3-1,4-0.1c0.2,0.2,0.3,0.6,0.3,0.8c0,1.4,0.8,2,2.1,2.1
		c1.4,0.1,2.8,0,4.1,0.1c0.7,0.1,1.4,0.3,2,0.6c0.9,0.5,1.6,1.2,2.5,1.7c0.8,0.5,1.5,1,1.5,2.1c0,0.4,0.5,0.9,0.8,1.4
		c0.7,1,1.5,2,2.2,3.1c1,1.7,1.9,3.4,2.9,5.1c0.3,0.4,0.7,0.8,0.9,1c1.6-0.9,3-1.7,4.4-2.6c1-0.6,2-1.3,2.6-2.2
		c0.5-0.7,0.7-1.8,0.6-2.7c0-0.3-1.4-0.5-2.1-0.6c-1.3-0.2-2.7-0.1-4-0.3c-0.7-0.1-1.4-0.5-2-0.8c0.3-0.4,0.5-0.5,0.7-0.5
		c3.5,0.3,7.1,0.6,10.6,0.9c0.4,0,0.8,0.4,1.2,0.7c0.6,0.5,1.1,1,1.6,1.6c0.5,0.6,1,1.2,1.5,1.9c0.4,0.6,0.5,1.5,1,2
		c0.5,0.5,1.4,0.6,2.1,0.7c0.1,0,0.5-0.9,0.5-1.4c0.1-1.1,0-2.3,0.2-3.4c0.2-1.2,1.3-1.9,2.7-1.8c1,0,1.5,0.6,1.5,1.5
		c-0.1,1.5-0.2,3-0.5,4.5c-0.3,1.4-0.9,2.7-1.4,4.1c0.4-0.1,0.8-0.1,1.1-0.2c0.1,0.2,0.2,0.3,0.2,0.4c0.5,1.6,0.7,1.7,2.1,0.8
		c0.8-0.5,1.7-0.7,2.7-1.1C128,257.8,128,257.4,127.9,257.3z M94.6,241.1c-1.4-0.5-2.7-1.3-4-2c0.1-0.2,0.1-0.3,0.2-0.5
		c1.4-0.6,2.7-1.5,4.4-0.9c0.5,0.2,1.2,0.5,1.3,0.9c0.3,0.8,0.3,1.7,0.4,2.5C96.1,241.2,95.3,241.4,94.6,241.1z M104.5,240.8
		c-0.1,0.3-0.5,0.7-0.8,0.7c-1.1,0.2-2.1-0.1-2.6-1.2c-0.4-0.8-0.7-1.6-1-2.4c-0.4-1,0-1.3,0.9-1.3
		C102.5,236.6,104.9,239.4,104.5,240.8z"/>
	<path class="st6" d="M124.4,263.1c-0.1,0.2-0.4,0.3-0.6,0.5c-0.1,0-0.2,0.1-0.2,0.1c-0.1-0.1-0.2-0.2-0.2-0.4
		c-0.1-0.1-0.1-0.2-0.1-0.4c0-0.7,0.2-1.4,0.3-2c-0.1,0-0.2,0-0.3,0c-0.2,0.6-0.5,1.1-0.5,1.7c-0.4,3.6-2.1,6.7-4.2,9.5
		c-2.5,3.3-5.1,6.5-7.6,9.8c-2.2,2.9-5.3,4.4-8.4,6c0.1-0.3,0.3-0.5,0.5-0.8c0.2-0.3,0.4-0.6,0.6-0.8c-1.2-1.2-2.4-0.8-2.9,0.6
		c-0.1,0.3-0.5,0.7-0.8,0.8c-1.3,0.6-2.7,1-4,1.8c-1.8,1.1-3.6,1-5.5,0.6c-0.3-0.1-0.6-0.2-0.9-0.1c-2.4,0.8-4.5,0.6-6.5-1.1
		c-0.4-0.3-1-0.5-1.4-0.7c-0.8-0.4-1.7-0.8-2.4-1.3c-1.2-0.8-2.3-0.7-3.2,0.7c-2.9-2.2-5.7-4.3-8.6-6.5c-1.5-1.2-2.8-2.4-4.1-3.5
		h1.2c-1.9-2.3-3.6-4.3-5.1-6.4c-0.9-1.4-2.1-1.5-3.8-1.7c0.5,1.2,0.8,2.2,1.4,3c2.4,3.4,4.7,6.8,7.3,10c2.4,2.7,5.4,4.7,8.8,6.2
		c2.5,1.1,5.1,1.8,7.7,2.8c4.7,1.8,9.6,1.7,14.4,1.1c2-0.2,4-1.1,6-1.5c2.2-0.4,4.2-1.1,6.1-2.2c4.4-2.5,8.3-5.5,11.7-9.2
		c2-2.2,3.6-4.7,5.2-7.2c0.5-0.7,0.2-1.9,0.3-2.9c0.3-1.5,0.6-3.1,1.2-4.6c0.6-1.4-0.4-2.5-0.5-3.8
		C124.8,261.8,124.7,262.5,124.4,263.1z"/>
	<path class="st6" d="M57.1,267.4c0.2-0.1,0.6-0.4,0.6-0.6c0-1.3,0-2.5-0.2-3.8c-0.1-0.9-0.5-1.7-0.7-2.5c-0.4-1.5-2.5-2.7-4.1-2.3
		c-0.1,2.7,0.5,5.2,1.4,7.6C54.7,267.3,55.8,267.8,57.1,267.4z"/>
	<path class="st6" d="M102.1,282.4c0.1,0.3,0.7,0.7,1,0.7c0.8-0.1,1.7-0.2,2.2-0.6c1.5-1.3,3-2.8,4.3-4.3c0.9-1,0.8-3.8,0-4.8
		c-0.8,2.6-2.2,4.5-4.3,5.9c-1,0.6-1.9,1.3-2.8,2.1C102.3,281.5,102,282.1,102.1,282.4z"/>
	<path class="st6" d="M69.6,277.6c1.1,1.3,2.1,2.5,3.4,3.6c0.6,0.6,1.5,1.1,2.2,1.2c0.8,0.1,1.8-0.2,2.6-0.4
		c0.2-0.2,0.4-0.3,0.5-0.5c-0.4-0.2-0.9-0.3-1.2-0.5c-2.2-1.5-4.3-3.1-6.5-4.5c-0.3-0.2-0.9-0.1-1.3-0.2
		C69.4,276.7,69.4,277.3,69.6,277.6z"/>
	<path class="st6" d="M54,255c0.4,0,1-0.1,2-0.2c-0.4-1.4-0.8-2.7-1.2-3.9c-0.2-0.4-0.6-0.8-0.9-1.2c-0.4,0.5-0.9,0.8-1.1,1.4
		C52.3,252.5,52.4,253.9,54,255z"/>
	<path class="st6" d="M102.6,272.2c-1.2,0.2-1.8,0.9-2.2,2.1c-0.4,1.1,0.2,1.8,0.9,2.6c1.3-0.9,2.4-1.8,2.6-3.4
		C104.1,272.4,103.7,272,102.6,272.2z"/>
	<path class="st6" d="M116.1,260.9c-0.6-0.6-1-1.1-1.5-1.6c-1.7,0.3-3.4,2-3.9,3.8C113,263.4,114.2,261.5,116.1,260.9z"/>
	<path class="st6" d="M67.6,269.2c0.7,1.2,1.4,2.4,2.2,3.6C70.2,271,69,269.1,67.6,269.2z"/>
	<path class="st6" d="M55.2,241.7c-0.2,1.3-0.5,2.5-0.7,3.8C55.4,244.3,56.5,243.2,55.2,241.7z"/>
	<path class="st6" d="M66.4,277.6c-0.8-0.8-1.4-1.6-2.1-2.3C64.3,277.4,64.9,278,66.4,277.6z"/>
</g>
<rect x="240.5" y="133.4" class="st7" width="5.8" height="196.5"/>
</svg>
