<?xml version="1.0" encoding="utf-8"?>
<!-- Generator: Adobe Illustrator 27.3.1, SVG Export Plug-In . SVG Version: 6.00 Build 0)  -->
<svg version="1.1" id="Layer_1" xmlns="http://www.w3.org/2000/svg" xmlns:xlink="http://www.w3.org/1999/xlink" x="0px" y="0px"
	 viewBox="0 0 432 432" style="enable-background:new 0 0 432 432;" xml:space="preserve">
<style type="text/css">
	.st0{fill:#FFFFFF;stroke:#FFFFFF;stroke-width:1.3645;stroke-miterlimit:10;}
	.st1{fill:#DF6E00;}
	.st2{fill:#043F78;}
	.st3{fill:#3F80A8;}
	.st4{fill:#0AFFF8;}
	.st5{fill:#FFFFFF;}
	.st6{fill:#FF0000;}
	.st7{fill:#0013FF;}
</style>
<g>
	<path class="st0" d="M271.5,250c-1.7,2.6-3.8,4.6-6.3,6c-2.5,1.4-5.2,2.1-8.2,2.1c-3.1,0-5.9-0.7-8.4-2.2c-2.5-1.4-4.4-3.4-5.8-6
		c-1.4-2.6-2.1-5.5-2.1-8.9c0-3.3,0.7-6.3,2.1-8.9c1.4-2.6,3.3-4.6,5.8-6c2.5-1.4,5.3-2.2,8.4-2.2c3,0,5.7,0.7,8.2,2.1
		c2.5,1.4,4.6,3.4,6.3,6c1.7,2.6,2.9,5.6,3.6,9C274.4,244.5,273.2,247.5,271.5,250z M249.7,246.8c0.9,1.7,2.1,3,3.7,3.9
		c1.6,0.9,3.4,1.4,5.4,1.4c3,0,5.7-1,8.2-3c2.4-2,4.3-4.7,5.5-8.1c-1.3-3.3-3.1-6-5.5-8c-2.4-2-5.1-3-8.1-3c-2,0-3.8,0.5-5.4,1.4
		c-1.6,0.9-2.8,2.2-3.7,3.9c-0.9,1.7-1.4,3.6-1.4,5.7C248.4,243.2,248.8,245.1,249.7,246.8z M271.7,245l1.7-3.9l-1.6-4.4l2.4-23.6
		h7.7l-2.9,27.5l1.7,16.7H273L271.7,245z"/>
	<path class="st0" d="M315.9,252.5c-3.4,3.4-7.9,5.1-12.4,5.1c-4.5,0-9-1.7-12.4-5.1c-3.4-3.4-5.1-7.9-5.1-12.4
		c0-4.4,1.7-9,5.1-12.4c3.4-3.3,7.8-5.1,12.4-5.1c4.4,0,9.7,2.5,14.8,7.5l-19.5,19.5c1.4,0.7,3,1.1,4.7,1.1c2.7,0,5.4-1,7.5-3.1
		L315.9,252.5z M294,244.9l14.3-14.3c-1.4-0.6-3.3-1-4.8-1c-2.8,0-5.5,1-7.5,3.1c-2.1,2.1-3.1,4.8-3.1,7.5
		C292.9,241.8,293.3,243.4,294,244.9z"/>
	<path class="st0" d="M336,238.8l-0.1,3.7l-14.7-17.6h8.6l11.1,13.2h-3.2l11.2-13.2h8.3l-15,17.8l-0.3-4.3l16.2,19.1h-8.6
		l-12.2-14.3h3.3l-12.1,14.3h-8.3L336,238.8z"/>
	<path class="st1" d="M360.3,217.6c-1.3-1.1-2-2.6-2-4.5c0-1.8,0.7-3.3,2-4.5s3-1.7,5.2-1.7c2.1,0,3.8,0.6,5.2,1.7
		c1.3,1.1,2,2.6,2,4.5c0,1.8-0.7,3.3-2,4.5c-1.3,1.1-3,1.7-5.2,1.7C363.3,219.3,361.6,218.7,360.3,217.6z"/>
	<polygon class="st0" points="365.4,225.3 369.2,224.6 369.2,257.3 361.7,257.3 361.7,224.6 	"/>
	<path class="st0" d="M391.5,213.5c-4.4,0-8,3.6-8,8.1v11.1h8v6.9h-8v17.6h-6.9v-35.7c0-8.3,6.7-15,14.9-15V213.5z"/>
	<path class="st0" d="M408.4,264.9c5.6,0,10.2-4.2,10.7-9.6c-2.4,1.4-5.1,2.3-8,2.3c-8.3,0-15-6.7-15-15v-19.5h6.9v19.5
		c0,4.5,3.6,8.1,8.1,8.1c4.4,0,8-3.6,8-8.1v-19.5h6.9v31c0,9.8-7.9,17.7-17.7,17.7L408.4,264.9L408.4,264.9z"/>
	<g>
		<path class="st2" d="M210.2,194.2c0-5.7,0-11.3,0-17c0-1.6,0.8-2.9,1.5-4.3c2.9-5.8,7.6-9,14-9.1c10.2-0.2,20.4-0.1,30.7-0.1
			c1.6,0,1.7,0,1.7,1.8c0,10.5,0,20.9,0,31.4c0,2.3-0.4,4.7-1.6,6.7c-2.9,4.7-6.7,8.2-12.6,8.7c-1.6,0.1-3.2,0.1-4.8,0.1
			c-8.8,0-17.6,0-26.3,0c-2.8,0-2.5,0.2-2.5-2.4C210.2,204.8,210.2,199.5,210.2,194.2C210.2,194.2,210.2,194.2,210.2,194.2z"/>
		<path class="st3" d="M178.1,248.6c0-4.9,0.1-9.8,0-14.6c-0.2-8.3,6.9-15.8,15.6-15.7c10,0.1,20,0,30,0c0.5,0,1,0,1.4,0
			c0.6,0,0.9,0.4,0.9,0.9c0,0.5,0,1,0,1.4c0,10,0,20,0,30c0,8-5.2,14.2-13,15.9c-1,0.2-1.9,0.2-2.9,0.2c-9.9,0-19.8,0-29.7,0
			c-0.3,0-0.6,0-1,0c-1,0.1-1.4-0.4-1.4-1.4c0-2.4,0-4.8,0-7.2C178.1,255,178.1,251.8,178.1,248.6z"/>
		<path class="st4" d="M171.1,199.5c0-3.3,0.1-6.5,0-9.8c-0.1-6.1,4.7-10.9,10.7-11c6.9-0.1,13.9,0,20.8,0c1.7,0,1.7,0,1.7,1.7
			c0,6.9-0.1,13.9,0,20.8c0.1,5.8-5.3,11.2-10.8,11.1c-6.9-0.1-13.9,0-20.8,0c-1.2,0-1.7-0.4-1.6-1.6
			C171.1,207,171.1,203.2,171.1,199.5z"/>
	</g>
</g>
<rect x="145.8" y="166.3" class="st5" width="3.5" height="118.8"/>
<g>
	<path class="st6" d="M125.7,270.1c0-0.7-0.4-1-1.2-0.7c-2,0.8-4.1,1.2-6.2,1.4c-2.1,0.1-4.1,0-6-0.6c-3.4-1.1-5.8-3.4-7.4-6.5
		c-2-3.7-2.2-7.8-2.7-11.8c-0.3-2.6-0.6-5.2-0.9-7.8c-0.3-2.4-0.6-4.7-0.9-7.1c-0.4-3.4-0.7-6.8-1-10.1c-0.5-4.8-1-9.6-1.6-14.3
		c-0.5-4.2-0.8-8.5-1.5-12.7c-1.4-8-4.8-15.1-10.4-21c-3.3-3.5-7.1-6.2-11.3-8.4c-3.8-1.9-7.8-3.4-12-4.3c-3.8-0.8-7.7-0.8-11.5-0.8
		c-2.5,0.2-5.1,0.2-7.6,0.5c-6.8,0.8-12.9,3.3-18.1,7.8c-2.9,2.5-5,5.6-6.3,9.3c-0.7,2.1-0.2,3.7,1.4,5.2c1.5,1.3,4.9,0.9,5.4-1.3
		c0.2-0.8,0.7-1.5,1.2-2.1c5.8-8.5,14-13.3,24.1-15.1c1.8-0.3,3.6-0.5,5.4-0.5c1.9,0.1,3.9,0.5,5.8,0.8c5.6,0.8,10,3.6,13.5,7.9
		c2.5,3.2,4.3,6.7,4.7,10.7c0.6,5.7,0.9,11.4,1.1,17.2c0.2,4.1,0.1,8.3,0.2,12.4c0.1,4.1,0.2,8.2,0.4,12.2c0.2,4.1,0.6,8.2,0.9,12.4
		c0.2,2.1,0.2,4.3,0.5,6.4c0.8,5.6,2.3,11,5.2,15.9c1.8,3.1,3.9,5.9,6.8,8c4.6,3.4,9.8,4.6,15.5,4.2c2.7-0.2,5.4-0.6,8-0.9
		c2-0.3,4.1-0.6,6.1-0.9c0.3,0,0.7-0.5,0.7-0.7C125.8,273.2,125.7,271.7,125.7,270.1z"/>
	<path class="st6" d="M77.4,261.6c-0.6-0.4-1.2-0.9-1.9-1.3c-0.6-0.4-1.3-0.4-1.9,0.2c-0.4,0.4-0.8,0.7-1.3,1
		c-4.6,4-9.7,6.9-15.7,8.3c-6,1.4-11.6,0.5-16.9-2.3c-3.9-2-6.9-5-9.4-8.7c-2-3-3.5-6.2-4.4-9.6c-0.6-2.2-0.9-4.5-1.2-6.7
		c-0.4-3.2-0.2-6.3,0.4-9.5c0.6-3.2,2.1-6,3.7-8.7c3.7-6.3,9-10.6,16-12.5c5.5-1.5,11.1-1.4,16.6,0.8c3.3,1.3,6.4,3.1,9.4,4.9
		c0.6,0.4,1.2,1,1.8,1.4c0.2,0.1,0.6,0.1,0.7-0.1c0.6-0.4,1.2-0.8,1.8-1.3c1.2-1,1.3-1.6,0.4-2.8c-0.6-0.8-1.3-1.7-2.2-2.3
		c-2.1-1.6-4.2-3.1-6.4-4.4c-2.4-1.4-4.9-2.8-7.5-3.8c-4.9-1.9-10.1-2.3-15.3-2.5c-2.1,0.2-4.3,0.2-6.4,0.5c-2.3,0.4-4.7,0.8-7,1.6
		c-2.6,0.9-5.1,2.2-7.5,3.5c-3.2,1.8-6.1,4.2-8.5,7.1c-3.8,4.7-6.2,10.1-7.7,16c-1.3,4.9-1.7,9.8-1.1,14.8c0.5,4.6,1.8,9.1,3.8,13.3
		c1.8,3.9,4.1,7.5,7.1,10.6c3.4,3.5,7.4,6.1,11.9,7.9c4.1,1.6,8.4,2.3,12.8,2.4c3.1,0,6.2-0.3,9.2-0.9c5.5-0.9,10.7-2.4,15.7-4.9
		c1.9-1,3.7-2.3,5.5-3.6c0.7-0.5,1.2-1.2,1.9-1.8c1.7-1.5,2.7-3.4,3.8-5.3C77.9,262.4,77.9,261.9,77.4,261.6z"/>
</g>
<g>
	<path class="st7" d="M77.2,241.3c-0.7-0.7-0.4-1.5-0.4-2.3c-0.1-1.8-0.1-3.6-0.6-5.3c-2.3-7.4-7.1-12.4-14.4-15
		c-2-0.7-4.1-1.3-6.2-1.5c-3.2-0.3-6.3,0.5-9.4,1.4c-5.8,1.7-9.7,5.7-12.6,10.8c-0.3,0.5,0,1.1,0.6,1.3c0.6,0.2,1.1,0.2,1.2-0.5
		c0.2-1.9,1.6-3,2.4-4.5c0.2-0.4,0.7-0.7,1-1c1-1,2.1-1.8,3.5-2.2c0.3-0.1,0.6,0,0.9,0c0,0.3,0,0.6-0.1,0.9
		c-0.3,0.8-0.7,1.6-0.3,2.8c0.3-0.5,0.5-0.9,0.7-1.2c0.3-0.5,0.5-1,1.2-0.8c0.6,0.2,0.6-0.3,0.7-0.7c0.1-0.3,0.3-0.6,0.5-0.7
		c0.7-0.3,1.4-0.5,2.1-0.8c1.8-0.7,3.6-1.5,5.5-2.1c0.7-0.2,1-0.7,1.2-1.3c0.1-0.2,0.2-0.4,0.3-0.5c1.8-0.7,3.7,0.2,4.7,1.5
		c0.4,0.6,0.1,1.2-0.6,1.5c-0.7,0.3-1.5,0.7-2.1,1.1c-0.8,0.5-1.7,0.5-2.3-0.3c-0.9-1.2-1.6-1.2-2.3,0.3c0.7,0.5,0.8,1.2,0.6,1.9
		c-0.2,0.7-0.9,0.4-1.3,0.4c-0.5,0-0.3-0.4-0.2-0.7c0.1-0.3,0-0.7,0-1.1c-0.3,0-0.3,0-0.3,0c-0.8,0.8-1.6,1.7-2.7,2.1
		c-0.1,0-0.1,0.2-0.2,0.3c-0.3,0.4-0.5,0.9-0.8,1.1c-1.1,0.6-2,1.3-3.3,1.6c-1.3,0.3-1.4,0.9-1,2.1c0.1,0.3,0.2,0.6,0.3,0.9
		c0.1,0.6,0.1,1.1-0.5,1.6c-0.6,0.5-1,0.3-1.6,0.1c-0.8-0.3-1.5-0.6-2.4-0.9c0,0.2,0,0.4,0,0.4c0.7,0.9,0.2,1.7-0.1,2.6
		c-0.6,2.2-0.8,4.3,0.2,6.5c0.5,1.2,0.5,1.1-0.5,1.9c0.7,1.2,0.7,1.2,1.4,0.9c0.2,0.3,0.3,0.5,0.5,0.8c0.1,0,0.2-0.1,0.2-0.1
		c-0.1-0.2-0.2-0.5-0.2-0.7c0.1-0.4,0.1-1.1,0.3-1.3c0.9-0.5,3.5,0.2,4.2,1c0.1,0.2,0.2,0.4,0.2,0.7c-0.2,0.1-0.4,0.2-0.7,0.2
		c-0.4,0-0.9,0-1.3,0c0,0.1,0,0.2-0.1,0.3c0.4,0.1,0.9,0.3,1.3,0.4c0.4,0.1,0.9,0,1.2,0.3c1,1,2,2.1,1.9,3.7
		c-0.1,1.7,0.3,3.3,1.4,4.6c0.3,0.4,0.6,0.8,0.9,1.3c0.8,1.4,2.6,2.2,4.2,2c0.4,0,0.5-0.2,0.7-0.6c0.5-1.9,1.3-3.7,2.9-4.9
		c0.6-0.5,0.8-1.1,0.7-1.8c-0.2-0.8-0.3-1.7-0.3-2.5c0-0.4,0.3-0.9,0.7-1c1-0.4,2-0.7,3-1.1c0.3-0.1,0.7-0.2,1.1-0.2
		c0-0.1,0-0.1,0-0.2c-0.3,0.1-0.7,0.1-1,0.2c0-0.8,0.1-1.6,0.1-2.3c0-0.6-0.3-1-1.1-0.9c-0.7,0.1-1.3-0.1-1.8-0.8
		c-1.1-1.8-2.4-3.5-3-5.6c-0.3-1-2-1.9-3-1.7c-0.7,0.1-1.5,0.2-2.2,0.1c-0.9-0.1-1.9-0.2-2.7-0.6c-0.7-0.3-1.2-1-1.8-1.5
		c-0.6-0.6-0.6-1.5-0.1-1.9c0.6-0.6,2-0.6,2.5,0c0.1,0.1,0.2,0.3,0.2,0.5c0,0.8,0.5,1.2,1.3,1.3c0.8,0,1.7,0,2.5,0
		c0.4,0,0.8,0.2,1.2,0.4c0.5,0.3,1,0.7,1.5,1.1c0.5,0.3,0.9,0.6,0.9,1.3c0,0.3,0.3,0.6,0.5,0.8c0.4,0.6,0.9,1.2,1.3,1.9
		c0.6,1,1.2,2.1,1.8,3.1c0.2,0.3,0.4,0.5,0.5,0.6c1-0.6,1.8-1,2.7-1.6c0.6-0.4,1.2-0.8,1.6-1.3c0.3-0.4,0.4-1.1,0.4-1.6
		c0-0.2-0.8-0.3-1.3-0.4c-0.8-0.1-1.6-0.1-2.4-0.2c-0.4-0.1-0.8-0.3-1.2-0.5c0.2-0.2,0.3-0.3,0.4-0.3c2.2,0.2,4.3,0.4,6.5,0.6
		c0.3,0,0.5,0.2,0.7,0.4c0.4,0.3,0.7,0.6,1,1c0.3,0.4,0.6,0.8,0.9,1.2c0.2,0.4,0.3,0.9,0.6,1.2c0.3,0.3,0.8,0.4,1.3,0.4
		c0.1,0,0.3-0.5,0.3-0.9c0.1-0.7,0-1.4,0.1-2.1c0.1-0.7,0.8-1.1,1.7-1.1c0.6,0,0.9,0.4,0.9,0.9c0,0.9-0.1,1.8-0.3,2.7
		c-0.2,0.8-0.5,1.6-0.8,2.5c0.3,0,0.5-0.1,0.7-0.1c0.1,0.1,0.1,0.2,0.1,0.2c0.3,1,0.4,1,1.3,0.5c0.5-0.3,1-0.4,1.6-0.7
		C77.2,241.6,77.3,241.4,77.2,241.3z M56.9,231.4c-0.9-0.3-1.7-0.8-2.5-1.2c0-0.1,0.1-0.2,0.1-0.3c0.8-0.4,1.7-0.9,2.7-0.6
		c0.3,0.1,0.7,0.3,0.8,0.6c0.2,0.5,0.2,1,0.2,1.5C57.8,231.4,57.3,231.6,56.9,231.4z M62.9,231.2c0,0.2-0.3,0.4-0.5,0.4
		c-0.7,0.1-1.3-0.1-1.6-0.7c-0.2-0.5-0.4-1-0.6-1.5c-0.2-0.6,0-0.8,0.6-0.8C61.7,228.6,63.1,230.3,62.9,231.2z"/>
	<path class="st7" d="M75.1,244.8c-0.1,0.1-0.2,0.2-0.4,0.3c-0.1,0-0.1,0.1-0.2,0.1c0-0.1-0.1-0.1-0.1-0.2c0-0.1-0.1-0.1-0.1-0.2
		c0-0.4,0.1-0.8,0.2-1.2c-0.1,0-0.1,0-0.2,0c-0.1,0.4-0.3,0.7-0.3,1.1c-0.2,2.2-1.3,4.1-2.6,5.8c-1.5,2-3.1,3.9-4.6,6
		c-1.3,1.8-3.2,2.7-5.1,3.7c0.1-0.2,0.2-0.3,0.3-0.5c0.1-0.2,0.3-0.3,0.4-0.5c-0.7-0.7-1.5-0.5-1.8,0.4c-0.1,0.2-0.3,0.4-0.5,0.5
		c-0.8,0.4-1.7,0.6-2.4,1.1c-1.1,0.7-2.2,0.6-3.4,0.4c-0.2,0-0.4-0.1-0.5-0.1c-1.4,0.5-2.8,0.4-4-0.6c-0.2-0.2-0.6-0.3-0.9-0.4
		c-0.5-0.3-1-0.5-1.5-0.8c-0.7-0.5-1.4-0.4-2,0.4c-1.8-1.3-3.5-2.6-5.2-4c-0.9-0.7-1.7-1.5-2.5-2.2h0.7c-1.1-1.4-2.2-2.6-3.1-3.9
		c-0.6-0.8-1.3-0.9-2.3-1c0.3,0.7,0.5,1.4,0.8,1.8c1.5,2.1,2.8,4.2,4.5,6.1c1.4,1.7,3.3,2.9,5.4,3.8c1.5,0.7,3.1,1.1,4.7,1.7
		c2.9,1.1,5.8,1,8.8,0.7c1.2-0.1,2.4-0.7,3.7-0.9c1.3-0.2,2.6-0.7,3.7-1.4c2.7-1.5,5.1-3.4,7.2-5.6c1.2-1.3,2.2-2.9,3.2-4.4
		c0.3-0.4,0.1-1.2,0.2-1.8c0.2-0.9,0.4-1.9,0.7-2.8c0.3-0.9-0.2-1.5-0.3-2.3C75.3,244.1,75.2,244.5,75.1,244.8z"/>
	<path class="st7" d="M34,247.5c0.1,0,0.4-0.2,0.4-0.3c0-0.8,0-1.5-0.1-2.3c-0.1-0.5-0.3-1-0.4-1.6c-0.2-0.9-1.5-1.7-2.5-1.4
		c-0.1,1.6,0.3,3.2,0.9,4.7C32.5,247.4,33.1,247.7,34,247.5z"/>
	<path class="st7" d="M61.5,256.6c0.1,0.2,0.4,0.4,0.6,0.4c0.5,0,1-0.1,1.4-0.4c0.9-0.8,1.8-1.7,2.7-2.6c0.5-0.6,0.5-2.3,0-3
		c-0.5,1.6-1.3,2.7-2.6,3.6c-0.6,0.4-1.2,0.8-1.7,1.3C61.5,256.1,61.4,256.4,61.5,256.6z"/>
	<path class="st7" d="M41.6,253.7c0.6,0.8,1.3,1.5,2,2.2c0.4,0.3,0.9,0.7,1.4,0.7c0.5,0.1,1.1-0.1,1.6-0.2c0.1-0.1,0.2-0.2,0.3-0.3
		c-0.3-0.1-0.5-0.2-0.8-0.3c-1.3-0.9-2.6-1.9-4-2.8c-0.2-0.1-0.5-0.1-0.8-0.1C41.5,253.2,41.4,253.5,41.6,253.7z"/>
	<path class="st7" d="M32.1,239.8c0.3,0,0.6-0.1,1.2-0.1c-0.3-0.9-0.5-1.6-0.7-2.4c-0.1-0.3-0.4-0.5-0.5-0.7
		c-0.2,0.3-0.6,0.5-0.7,0.8C31,238.4,31.1,239.2,32.1,239.8z"/>
	<path class="st7" d="M61.8,250.4c-0.7,0.1-1.1,0.6-1.3,1.3c-0.2,0.7,0.1,1.1,0.6,1.6c0.8-0.6,1.4-1.1,1.6-2
		C62.7,250.5,62.4,250.3,61.8,250.4z"/>
	<path class="st7" d="M70,243.5c-0.4-0.4-0.6-0.7-0.9-1c-1,0.2-2.1,1.2-2.4,2.3C68.1,245,68.8,243.8,70,243.5z"/>
	<path class="st7" d="M40.4,248.6c0.4,0.7,0.9,1.4,1.3,2.2C42,249.7,41.2,248.5,40.4,248.6z"/>
	<path class="st7" d="M32.8,231.7c-0.1,0.8-0.3,1.5-0.4,2.3C32.9,233.3,33.6,232.7,32.8,231.7z"/>
	<path class="st7" d="M39.6,253.7c-0.5-0.5-0.9-1-1.3-1.4C38.4,253.5,38.7,253.9,39.6,253.7z"/>
</g>
</svg>
