<?xml version="1.0" encoding="UTF-8"?>
<svg id="Layer_1" data-name="Layer 1" xmlns="http://www.w3.org/2000/svg" viewBox="0 0 432 432">
  <defs>
    <style>
      .cls-1 {
        fill: #fff;
      }

      .cls-2 {
        fill: #0afff8;
      }

      .cls-3 {
        fill: #0013ff;
      }

      .cls-4 {
        fill: #043f78;
      }

      .cls-5 {
        fill: #3f80a8;
      }

      .cls-6 {
        fill: red;
      }
    </style>
  </defs>
  <g>
    <path class="cls-4" d="m346.96,179.56c0-9.35.04-18.71-.03-28.06-.02-2.7,1.31-4.83,2.44-7.07,4.78-9.54,12.51-14.88,23.17-15.05,16.89-.28,33.79-.11,50.69-.1,2.72,0,2.8.08,2.8,2.92.03,17.3.05,34.59,0,51.89-.01,3.86-.61,7.72-2.65,11.04-4.79,7.78-11.08,13.59-20.76,14.32-2.63.2-5.27.23-7.91.23-14.52.01-29.04,0-43.56-.02-4.55,0-4.09.38-4.1-3.96-.02-8.71,0-17.43,0-26.14-.03,0-.06,0-.08,0Z"/>
    <path class="cls-5" d="m294.02,269.54c0-8.06.12-16.12-.03-24.18-.26-13.78,11.41-26.16,25.84-25.97,16.51.21,33.03.05,49.55.05.79,0,1.59,0,2.38.06.92.07,1.42.61,1.46,1.53.03.79.04,1.59.04,2.38,0,16.52.03,33.04,0,49.55-.03,13.18-8.53,23.5-21.45,26.27-1.58.34-3.14.39-4.72.39-16.38,0-32.77,0-49.15,0-.53,0-1.06-.04-1.58,0-1.7.13-2.35-.65-2.33-2.33.06-3.96.01-7.93.01-11.89,0-5.29,0-10.57,0-15.86Z"/>
    <path class="cls-2" d="m282.34,188.27c0-5.41.09-10.83-.02-16.24-.2-10.02,7.72-18.01,17.66-18.12,11.49-.12,22.97-.04,34.46-.02,2.8,0,2.87.06,2.88,2.84.03,11.49-.15,22.98.06,34.47.17,9.57-8.8,18.45-17.93,18.35-11.48-.13-22.97-.02-34.46.06-2.02.02-2.74-.6-2.69-2.71.13-6.2.05-12.41.05-18.62Z"/>
  </g>
  <g>
    <path class="cls-6" d="m207.25,304.55c-.06-1.22-.69-1.6-1.89-1.14-3.29,1.25-6.69,2.04-10.22,2.29-3.36.24-6.69.06-9.88-.98-5.57-1.8-9.45-5.57-12.18-10.72-3.21-6.07-3.56-12.76-4.43-19.35-.56-4.27-.96-8.56-1.47-12.84-.46-3.88-1.03-7.75-1.45-11.64-.6-5.52-1.09-11.06-1.68-16.58-.84-7.82-1.71-15.64-2.61-23.45-.79-6.93-1.34-13.91-2.53-20.77-2.27-13.1-7.91-24.67-17.03-34.42-5.33-5.7-11.57-10.23-18.58-13.7-6.26-3.1-12.73-5.58-19.6-6.96-6.25-1.26-12.56-1.31-18.9-1.37-4.17.25-8.37.32-12.52.78-11.16,1.23-21.13,5.37-29.61,12.84-4.73,4.16-8.15,9.25-10.3,15.18-1.23,3.38-.39,6.08,2.32,8.46,2.46,2.17,8.01,1.54,8.89-2.08.3-1.24,1.19-2.38,1.94-3.47,9.56-13.96,23-21.81,39.44-24.79,2.92-.53,5.94-.9,8.89-.79,3.17.11,6.31.89,9.47,1.35,9.13,1.34,16.41,5.81,22.09,13.01,4.08,5.16,6.99,10.99,7.69,17.47,1.01,9.33,1.43,18.72,1.87,28.1.32,6.76.2,13.54.37,20.31.16,6.68.31,13.36.67,20.03.37,6.75.99,13.5,1.5,20.24.27,3.5.35,7.04.85,10.51,1.33,9.15,3.83,17.95,8.45,26.04,2.89,5.06,6.34,9.63,11.08,13.16,7.55,5.61,16.11,7.52,25.31,6.94,4.39-.28,8.77-.92,13.14-1.46,3.35-.42,6.69-.91,10.01-1.47.44-.07,1.11-.74,1.11-1.14.02-2.53-.09-5.07-.21-7.6Z"/>
    <path class="cls-6" d="m128.21,290.58c-1.01-.72-2.02-1.47-3.09-2.08-1.04-.59-2.1-.6-3.07.29-.65.6-1.39,1.11-2.06,1.7-7.5,6.52-15.88,11.29-25.66,13.55-9.78,2.27-18.99.81-27.75-3.8-6.39-3.35-11.38-8.22-15.37-14.28-3.23-4.88-5.69-10.07-7.25-15.64-1-3.57-1.46-7.31-1.94-11.01-.67-5.2-.37-10.38.6-15.54.98-5.23,3.38-9.81,6.05-14.3,6.1-10.24,14.77-17.36,26.27-20.51,9.06-2.49,18.19-2.26,27.12,1.25,5.46,2.14,10.49,5.05,15.47,8.07,1.05.64,1.9,1.6,2.91,2.31.27.18.9.1,1.21-.1,1.02-.66,2.01-1.38,2.94-2.16,1.89-1.58,2.09-2.57.62-4.55-1.02-1.38-2.17-2.78-3.53-3.79-3.42-2.54-6.87-5.08-10.53-7.23-3.97-2.33-8.05-4.59-12.33-6.21-8.02-3.03-16.49-3.84-25.05-4.05-3.5.26-7.03.31-10.5.84-3.85.59-7.76,1.24-11.4,2.54-4.24,1.52-8.35,3.54-12.27,5.77-5.29,3.01-9.98,6.86-13.84,11.62-6.27,7.73-10.13,16.61-12.65,26.18-2.11,7.99-2.72,16.07-1.77,24.22.88,7.57,2.87,14.88,6.15,21.82,3,6.36,6.72,12.21,11.59,17.31,5.53,5.79,12.11,9.97,19.54,12.89,6.75,2.66,13.78,3.85,20.98,3.89,5.08.03,10.1-.53,15.13-1.4,8.93-1.54,17.57-3.93,25.64-8.04,3.16-1.61,6.04-3.79,8.97-5.83,1.14-.8,2.03-1.95,3.09-2.88,2.76-2.43,4.49-5.59,6.21-8.76.46-.84.35-1.55-.43-2.1Z"/>
  </g>
  <g>
    <path class="cls-3" d="m127.94,257.32c-1.17-1.08-.61-2.43-.7-3.71-.22-2.91-.11-5.95-.95-8.68-3.72-12.05-11.67-20.28-23.54-24.52-3.26-1.17-6.71-2.06-10.15-2.42-5.28-.55-10.39.84-15.45,2.35-9.51,2.85-15.85,9.34-20.58,17.71-.43.77.06,1.75.92,2.12.93.39,1.87.32,1.96-.76.27-3.06,2.68-4.93,3.91-7.44.33-.67,1.11-1.13,1.69-1.68,1.66-1.56,3.46-2.93,5.7-3.53.47-.13,1.02,0,1.53,0-.07.5-.06,1.04-.24,1.5-.51,1.34-1.18,2.65-.57,4.5.48-.83.84-1.4,1.15-2,.43-.82.83-1.58,2.01-1.27.93.25.93-.44,1.07-1.09.09-.41.42-.92.78-1.09,1.09-.5,2.25-.82,3.36-1.25,2.99-1.15,5.96-2.4,8.98-3.46,1.14-.4,1.65-1.12,2-2.15.1-.29.31-.67.57-.77,2.88-1.18,6.01.25,7.64,2.45.73.98.16,1.94-.98,2.39-1.22.49-2.39,1.14-3.49,1.87-1.35.9-2.82.76-3.79-.53-1.52-2.02-2.68-1.93-3.81.43,1.13.77,1.25,1.96.96,3.17-.29,1.19-1.41.72-2.13.71-.78,0-.5-.65-.35-1.21.15-.56.03-1.19.03-1.82-.41.03-.47.02-.5.04-1.33,1.33-2.62,2.7-4.45,3.38-.13.05-.13.39-.25.55-.43.61-.75,1.45-1.35,1.77-1.72.95-3.27,2.17-5.33,2.58-2.05.41-2.33,1.41-1.63,3.41.18.5.32,1.02.44,1.54.24,1.02.11,1.82-.8,2.59-.92.78-1.66.53-2.56.18-1.26-.49-2.53-.93-3.91-1.44,0,.4-.07.62.01.73,1.17,1.44.31,2.78-.1,4.2-1.03,3.54-1.23,7.09.36,10.56.86,1.89.88,1.88-.88,3.14q1.23,2.02,2.37,1.4c.28.44.55.88.83,1.32.12-.06.25-.12.37-.17-.1-.39-.33-.8-.28-1.17.09-.72.12-1.81.57-2.06,1.47-.84,5.7.28,6.83,1.63.23.27.26.71.38,1.07-.36.11-.71.3-1.07.33-.71.05-1.42.02-2.14.02-.03.16-.06.31-.09.47.72.22,1.42.47,2.15.66.64.17,1.52.07,1.89.46,1.58,1.7,3.28,3.37,3.11,6.05-.18,2.79.51,5.38,2.35,7.58.54.65,1.06,1.33,1.49,2.05,1.34,2.23,4.26,3.66,6.85,3.34.64-.08.89-.25,1.09-.99.86-3.11,2.13-6.05,4.8-8.1,1.03-.79,1.38-1.74,1.14-3.03-.25-1.35-.47-2.74-.43-4.1.02-.6.56-1.47,1.1-1.71,1.56-.72,3.23-1.21,4.88-1.75.57-.19,1.18-.27,1.77-.4-.02-.11-.05-.23-.07-.34-.53.09-1.07.17-1.6.26.07-1.32.23-2.55.18-3.77-.04-.96-.43-1.67-1.73-1.41-1.18.23-2.16-.18-2.87-1.35-1.82-2.99-3.93-5.8-4.94-9.25-.49-1.68-3.3-3.1-4.97-2.86-1.18.17-2.39.33-3.56.22-1.48-.14-3.04-.33-4.37-.93-1.12-.5-1.99-1.59-2.91-2.49-.95-.93-1-2.39-.19-3.11,1.06-.95,3.28-.99,4.04-.05.18.22.28.56.28.85.02,1.37.76,2.04,2.07,2.09,1.37.06,2.76-.03,4.13.07.67.05,1.37.29,1.96.63.88.5,1.64,1.21,2.5,1.75.82.51,1.54.96,1.49,2.13-.02.44.46.93.76,1.36.72,1.04,1.54,2.01,2.19,3.09,1.01,1.67,1.89,3.42,2.87,5.11.25.44.65.79.86,1.03,1.57-.92,3.01-1.68,4.36-2.57.95-.63,1.98-1.29,2.62-2.19.5-.7.66-1.8.57-2.69-.03-.28-1.35-.52-2.1-.61-1.32-.15-2.66-.09-3.97-.28-.7-.1-1.36-.53-2.04-.8.31-.38.52-.49.72-.47,3.53.29,7.05.58,10.57.93.42.04.85.39,1.2.68.58.49,1.14,1.02,1.64,1.6.53.61,1.04,1.25,1.46,1.94.39.64.49,1.53,1,2,.5.46,1.36.59,2.08.67.13.01.47-.9.52-1.4.12-1.14.05-2.3.2-3.43.16-1.2,1.29-1.88,2.73-1.8,1,.05,1.52.64,1.47,1.54-.08,1.5-.2,3.01-.52,4.47-.3,1.38-.88,2.69-1.36,4.13.41-.07.78-.13,1.14-.18.11.17.2.28.24.4.49,1.64.73,1.68,2.14.77.76-.49,1.68-.72,2.67-1.13,0-.17.1-.5-.01-.6Zm-33.29-16.19c-1.4-.54-2.7-1.33-4.05-2.01.05-.16.11-.31.16-.47,1.38-.6,2.72-1.48,4.36-.91.5.17,1.16.5,1.33.92.3.76.28,1.65.39,2.49-.74,0-1.56.23-2.19-.02Zm9.89-.37c-.07.29-.51.65-.82.7-1.08.16-2.05-.14-2.59-1.17-.4-.78-.67-1.63-1-2.45-.39-.95,0-1.33.94-1.31,1.47.02,3.82,2.83,3.47,4.23Z"/>
    <path class="cls-3" d="m124.42,263.08c-.1.21-.37.33-.63.46-.09.04-.17.09-.25.14-.06-.12-.16-.24-.23-.36-.08-.12-.13-.24-.13-.36.03-.68.16-1.36.26-2.04-.11-.02-.22-.03-.32-.05-.18.57-.48,1.14-.54,1.73-.36,3.64-2.06,6.66-4.24,9.47-2.53,3.26-5.15,6.46-7.6,9.77-2.18,2.93-5.31,4.4-8.42,5.99.09-.32.28-.54.46-.77.21-.27.42-.55.63-.82-1.18-1.15-2.43-.83-2.94.64-.12.33-.5.66-.85.81-1.31.61-2.75,1-3.96,1.76-1.79,1.12-3.6.99-5.49.58-.28-.06-.61-.17-.86-.09-2.35.81-4.51.64-6.47-1.05-.39-.34-.95-.46-1.43-.7-.82-.42-1.67-.79-2.42-1.3-1.17-.81-2.27-.71-3.2.7-2.87-2.16-5.75-4.28-8.56-6.47-1.47-1.15-2.83-2.45-4.09-3.55h1.22c-1.86-2.31-3.61-4.25-5.07-6.39-.93-1.36-2.12-1.54-3.84-1.68.53,1.2.8,2.22,1.37,3.02,2.38,3.37,4.65,6.85,7.35,9.95,2.36,2.71,5.44,4.72,8.77,6.16,2.51,1.08,5.15,1.84,7.69,2.83,4.71,1.83,9.57,1.69,14.43,1.1,2.04-.25,4-1.12,6.04-1.49,2.18-.4,4.18-1.15,6.09-2.23,4.37-2.47,8.35-5.49,11.74-9.16,2-2.16,3.62-4.7,5.22-7.19.47-.73.15-1.92.35-2.87.32-1.54.63-3.11,1.21-4.57.55-1.4-.36-2.48-.5-3.77-.4.59-.51,1.25-.78,1.83Z"/>
    <path class="cls-3" d="m57.15,267.44c.24-.07.61-.38.6-.57-.02-1.26-.05-2.53-.22-3.78-.12-.87-.51-1.69-.71-2.55-.36-1.5-2.46-2.72-4.07-2.29-.15,2.65.54,5.17,1.44,7.64.51,1.39,1.58,1.93,2.96,1.55Z"/>
    <path class="cls-3" d="m102.13,282.37c.11.32.65.72.98.69.76-.07,1.68-.16,2.21-.61,1.54-1.32,3-2.77,4.34-4.29.88-.99.8-3.82-.02-4.84-.79,2.56-2.18,4.48-4.31,5.88-.96.63-1.89,1.32-2.77,2.07-.28.24-.53.8-.43,1.1Z"/>
    <path class="cls-3" d="m69.6,277.57c1.06,1.26,2.15,2.52,3.35,3.64.61.57,1.45,1.07,2.25,1.2.84.13,1.76-.24,2.64-.39.18-.16.35-.31.53-.47-.42-.17-.89-.26-1.25-.51-2.17-1.5-4.31-3.07-6.5-4.55-.32-.22-.86-.12-1.3-.17.08.42.03.96.27,1.25Z"/>
    <path class="cls-3" d="m54.01,254.96c.42-.04,1.03-.09,2-.18-.43-1.43-.76-2.68-1.2-3.9-.16-.44-.59-.78-.9-1.16-.38.45-.94.85-1.11,1.37-.47,1.45-.41,2.86,1.2,3.87Z"/>
    <path class="cls-3" d="m102.63,272.23c-1.18.22-1.8.94-2.16,2.07-.36,1.11.2,1.76.95,2.57,1.28-.91,2.36-1.8,2.58-3.35.15-1.09-.3-1.49-1.36-1.29Z"/>
    <path class="cls-3" d="m116.1,260.86c-.59-.62-1.03-1.09-1.5-1.59-1.7.31-3.44,1.96-3.91,3.8,2.29.36,3.53-1.58,5.41-2.21Z"/>
    <path class="cls-3" d="m67.6,269.24c.72,1.18,1.43,2.35,2.21,3.63.4-1.84-.83-3.75-2.21-3.63Z"/>
    <path class="cls-3" d="m55.22,241.67c-.25,1.25-.49,2.51-.74,3.76.91-1.12,1.98-2.21.74-3.76Z"/>
    <path class="cls-3" d="m66.39,277.64c-.75-.84-1.43-1.58-2.1-2.33.04,2.07.63,2.66,2.1,2.33Z"/>
  </g>
  <rect class="cls-1" x="240.54" y="133.35" width="5.77" height="196.46"/>
</svg>