<?xml version="1.0" encoding="iso-8859-1"?>
<!-- Generator: Adobe Illustrator 27.3.1, SVG Export Plug-In . SVG Version: 6.00 Build 0)  -->
<svg version="1.1" id="Layer_1" xmlns="http://www.w3.org/2000/svg" xmlns:xlink="http://www.w3.org/1999/xlink" x="0px" y="0px"
	 viewBox="0 0 432 432" style="enable-background:new 0 0 432 432;" xml:space="preserve">
<rect style="display:none;fill:#00112A;stroke:#FFFFFF;stroke-miterlimit:10;" width="432" height="432"/>
<g>
	<g>
		<path style="fill:#043F78;" d="M332.914,185.776c0-8.268,0.039-16.536-0.024-24.804c-0.018-2.386,1.159-4.267,2.153-6.249
			c4.229-8.43,11.06-13.15,20.48-13.305c14.931-0.245,29.869-0.095,44.804-0.085c2.404,0.002,2.471,0.067,2.475,2.581
			c0.026,15.288,0.046,30.575,0.001,45.863c-0.01,3.409-0.535,6.827-2.342,9.759c-4.235,6.873-9.791,12.009-18.348,12.659
			c-2.323,0.176-4.661,0.205-6.992,0.207c-12.835,0.011-25.67,0-38.505-0.018c-4.02-0.006-3.617,0.334-3.624-3.501
			c-0.015-7.702-0.005-15.404-0.005-23.107C332.964,185.776,332.939,185.776,332.914,185.776z"/>
		<path style="fill:#3F80A8;" d="M286.118,265.314c0-7.125,0.11-14.252-0.025-21.374c-0.23-12.18,10.083-23.118,22.837-22.955
			c14.595,0.187,29.194,0.041,43.792,0.042c0.7,0,1.403,0,2.1,0.05c0.817,0.058,1.256,0.539,1.291,1.354
			c0.03,0.7,0.034,1.401,0.034,2.102c0.002,14.6,0.029,29.2-0.008,43.8c-0.03,11.652-7.538,20.772-18.959,23.219
			c-1.392,0.298-2.776,0.344-4.174,0.345c-14.481,0.007-28.961,0.005-43.442,0.005c-0.467,0-0.937-0.036-1.401,0
			c-1.506,0.118-2.08-0.578-2.058-2.061c0.05-3.503,0.012-7.008,0.011-10.512C286.115,274.658,286.116,269.986,286.118,265.314z"/>
		<path style="fill:#0AFFF8;" d="M275.793,193.475c0-4.786,0.079-9.573-0.017-14.356c-0.178-8.853,6.821-15.923,15.606-16.015
			c10.152-0.107,20.306-0.039,30.459-0.018c2.476,0.005,2.537,0.057,2.543,2.508c0.025,10.155-0.133,20.312,0.052,30.464
			c0.154,8.463-7.779,16.309-15.847,16.217c-10.151-0.115-20.306-0.021-30.458,0.055c-1.788,0.013-2.42-0.531-2.38-2.397
			C275.869,204.448,275.793,198.961,275.793,193.475z"/>
	</g>
</g>
<g>
	<path style="fill:#E30700;" d="M209.425,296.254c-0.054-1.075-0.611-1.413-1.669-1.011c-2.912,1.106-5.914,1.801-9.036,2.026
		c-2.972,0.214-5.916,0.051-8.736-0.863c-4.92-1.593-8.356-4.924-10.761-9.472c-2.839-5.368-3.151-11.282-3.914-17.101
		c-0.495-3.776-0.85-7.57-1.3-11.351c-0.409-3.432-0.908-6.854-1.283-10.289c-0.532-4.881-0.959-9.773-1.482-14.655
		c-0.741-6.912-1.512-13.822-2.303-20.729c-0.702-6.127-1.183-12.294-2.233-18.362c-2.003-11.58-6.99-21.805-15.049-30.421
		c-4.713-5.039-10.231-9.044-16.421-12.113c-5.532-2.742-11.25-4.928-17.327-6.156c-5.526-1.116-11.103-1.154-16.706-1.209
		c-3.69,0.221-7.397,0.287-11.067,0.692c-9.868,1.09-18.678,4.75-26.169,11.347c-4.179,3.68-7.201,8.175-9.105,13.419
		c-1.085,2.99-0.349,5.375,2.046,7.481c2.178,1.915,7.083,1.364,7.854-1.835c0.265-1.099,1.053-2.101,1.717-3.07
		c8.452-12.337,20.325-19.276,34.861-21.908c2.581-0.467,5.247-0.793,7.856-0.699c2.8,0.101,5.577,0.785,8.367,1.195
		c8.068,1.188,14.503,5.138,19.526,11.5c3.604,4.564,6.176,9.713,6.796,15.445c0.892,8.244,1.267,16.55,1.655,24.839
		c0.28,5.976,0.181,11.969,0.323,17.952c0.14,5.903,0.271,11.809,0.591,17.704c0.325,5.97,0.875,11.928,1.33,17.891
		c0.236,3.098,0.307,6.22,0.753,9.287c1.176,8.086,3.384,15.863,7.471,23.019c2.556,4.476,5.603,8.515,9.793,11.629
		c6.671,4.959,14.242,6.646,22.37,6.13c3.883-0.247,7.749-0.809,11.614-1.292c2.958-0.37,5.909-0.807,8.849-1.302
		c0.388-0.065,0.977-0.654,0.98-1.004C209.632,300.732,209.537,298.491,209.425,296.254z"/>
	<path style="fill:#E30700;" d="M139.565,283.906c-0.897-0.635-1.783-1.295-2.735-1.838c-0.919-0.524-1.86-0.533-2.715,0.26
		c-0.576,0.534-1.227,0.985-1.821,1.501c-6.626,5.761-14.034,9.976-22.678,11.98c-8.644,2.004-16.781,0.712-24.525-3.356
		c-5.645-2.965-10.056-7.27-13.589-12.62c-2.851-4.317-5.031-8.902-6.407-13.826c-0.882-3.158-1.294-6.464-1.715-9.73
		c-0.592-4.594-0.326-9.175,0.528-13.74c0.864-4.618,2.988-8.675,5.348-12.636c5.388-9.047,13.059-15.343,23.222-18.129
		c8.012-2.196,16.078-1.996,23.967,1.102c4.824,1.894,9.271,4.461,13.674,7.129c0.928,0.562,1.675,1.417,2.572,2.041
		c0.235,0.163,0.798,0.092,1.073-0.084c0.904-0.58,1.778-1.219,2.603-1.908c1.674-1.399,1.845-2.272,0.547-4.024
		c-0.906-1.223-1.914-2.455-3.121-3.353c-3.019-2.246-6.07-4.487-9.31-6.388c-3.505-2.056-7.111-4.058-10.898-5.49
		c-7.092-2.682-14.577-3.394-22.14-3.579c-3.095,0.232-6.218,0.277-9.277,0.744c-3.399,0.519-6.857,1.092-10.073,2.245
		c-3.746,1.342-7.377,3.13-10.844,5.101c-4.672,2.658-8.82,6.059-12.233,10.268c-5.541,6.834-8.951,14.681-11.183,23.139
		c-1.863,7.059-2.402,14.201-1.568,21.404c0.775,6.692,2.538,13.156,5.436,19.287c2.655,5.617,5.94,10.796,10.241,15.304
		c4.884,5.12,10.7,8.81,17.269,11.393c5.969,2.347,12.177,3.399,18.547,3.439c4.486,0.028,8.926-0.47,13.374-1.237
		c7.895-1.361,15.526-3.477,22.661-7.11c2.794-1.423,5.341-3.348,7.928-5.149c1.01-0.703,1.794-1.723,2.728-2.546
		c2.443-2.151,3.965-4.945,5.492-7.742C140.351,285.012,140.252,284.393,139.565,283.906z"/>
</g>
<g>
	<path style="fill:#3F45FF;" d="M139.321,254.515c-1.034-0.951-0.535-2.152-0.62-3.277c-0.194-2.569-0.095-5.255-0.84-7.669
		c-3.29-10.649-10.317-17.922-20.808-21.677c-2.882-1.031-5.934-1.821-8.969-2.137c-4.668-0.486-9.187,0.744-13.652,2.081
		c-8.409,2.518-14.012,8.253-18.192,15.657c-0.382,0.677,0.049,1.55,0.817,1.874c0.822,0.347,1.65,0.282,1.733-0.668
		c0.236-2.703,2.364-4.358,3.454-6.578c0.292-0.594,0.978-0.998,1.491-1.481c1.47-1.382,3.059-2.587,5.042-3.124
		c0.419-0.114,0.9-0.002,1.352,0.005c-0.065,0.445-0.054,0.919-0.211,1.329c-0.453,1.187-1.039,2.339-0.502,3.982
		c0.424-0.73,0.743-1.235,1.018-1.763c0.378-0.727,0.737-1.399,1.774-1.119c0.818,0.221,0.819-0.385,0.942-0.96
		c0.077-0.362,0.368-0.817,0.685-0.962c0.96-0.438,1.987-0.727,2.974-1.108c2.646-1.02,5.264-2.118,7.939-3.056
		c1.01-0.354,1.458-0.992,1.77-1.896c0.09-0.26,0.276-0.59,0.502-0.682c2.545-1.042,5.309,0.222,6.752,2.168
		c0.641,0.864,0.142,1.711-0.865,2.116c-1.076,0.432-2.113,1.007-3.08,1.65c-1.191,0.792-2.494,0.67-3.347-0.467
		c-1.341-1.788-2.367-1.702-3.372,0.378c1,0.68,1.109,1.735,0.848,2.806c-0.256,1.05-1.25,0.632-1.882,0.625
		c-0.686-0.008-0.438-0.575-0.306-1.069c0.132-0.494,0.029-1.052,0.029-1.605c-0.365,0.03-0.42,0.018-0.441,0.039
		c-1.173,1.179-2.319,2.389-3.936,2.992c-0.117,0.044-0.119,0.343-0.222,0.49c-0.38,0.543-0.667,1.278-1.194,1.568
		c-1.52,0.838-2.886,1.917-4.709,2.282c-1.812,0.364-2.061,1.245-1.441,3.018c0.155,0.444,0.282,0.899,0.391,1.357
		c0.212,0.897,0.099,1.605-0.711,2.292c-0.816,0.691-1.471,0.47-2.261,0.161c-1.109-0.435-2.236-0.826-3.454-1.272
		c0,0.354-0.063,0.552,0.009,0.641c1.03,1.276,0.277,2.455-0.091,3.717c-0.913,3.128-1.087,6.27,0.317,9.334
		c0.764,1.668,0.775,1.663-0.775,2.771c1.083,1.789,1.083,1.789,2.097,1.241c0.244,0.39,0.488,0.78,0.732,1.17
		c0.11-0.051,0.22-0.102,0.33-0.153c-0.09-0.346-0.289-0.707-0.247-1.036c0.083-0.637,0.108-1.598,0.5-1.822
		c1.303-0.742,5.042,0.245,6.04,1.44c0.201,0.241,0.23,0.627,0.338,0.946c-0.316,0.102-0.628,0.267-0.95,0.291
		c-0.627,0.047-1.259,0.014-1.889,0.014c-0.027,0.139-0.054,0.277-0.081,0.416c0.632,0.197,1.259,0.413,1.898,0.584
		c0.562,0.151,1.345,0.058,1.669,0.408c1.397,1.506,2.9,2.979,2.75,5.344c-0.157,2.47,0.447,4.751,2.077,6.699
		c0.478,0.571,0.934,1.172,1.316,1.809c1.185,1.974,3.762,3.233,6.059,2.949c0.569-0.07,0.783-0.219,0.962-0.871
		c0.758-2.752,1.881-5.345,4.242-7.161c0.909-0.699,1.218-1.541,1.011-2.677c-0.218-1.195-0.414-2.417-0.383-3.622
		c0.014-0.528,0.496-1.296,0.969-1.514c1.381-0.637,2.859-1.067,4.309-1.547c0.505-0.167,1.042-0.24,1.564-0.356
		c-0.021-0.101-0.042-0.202-0.063-0.302c-0.472,0.075-0.944,0.151-1.418,0.226c0.064-1.165,0.208-2.254,0.157-3.335
		c-0.04-0.847-0.383-1.472-1.525-1.248c-1.046,0.206-1.905-0.16-2.536-1.195c-1.611-2.643-3.477-5.126-4.362-8.174
		c-0.432-1.488-2.918-2.743-4.389-2.532c-1.04,0.149-2.113,0.289-3.148,0.191c-1.31-0.124-2.688-0.289-3.865-0.818
		c-0.988-0.445-1.76-1.406-2.57-2.198c-0.839-0.82-0.884-2.115-0.171-2.751c0.936-0.836,2.903-0.876,3.568-0.045
		c0.156,0.195,0.247,0.495,0.252,0.748c0.021,1.215,0.675,1.804,1.827,1.851c1.215,0.05,2.437-0.027,3.648,0.064
		c0.591,0.045,1.213,0.257,1.73,0.553c0.777,0.445,1.451,1.068,2.213,1.543c0.723,0.451,1.359,0.849,1.314,1.884
		c-0.017,0.392,0.406,0.821,0.672,1.203c0.638,0.917,1.365,1.777,1.94,2.73c0.892,1.478,1.671,3.023,2.534,4.52
		c0.222,0.386,0.576,0.695,0.763,0.914c1.387-0.809,2.658-1.484,3.855-2.272c0.842-0.554,1.748-1.144,2.319-1.938
		c0.446-0.62,0.586-1.595,0.507-2.376c-0.025-0.246-1.194-0.46-1.857-0.536c-1.165-0.134-2.354-0.08-3.513-0.244
		c-0.623-0.088-1.205-0.464-1.805-0.71c0.278-0.334,0.463-0.43,0.639-0.415c3.117,0.259,6.234,0.515,9.347,0.825
		c0.372,0.037,0.751,0.342,1.059,0.603c0.515,0.434,1.008,0.905,1.452,1.412c0.471,0.537,0.921,1.105,1.291,1.714
		c0.344,0.566,0.432,1.355,0.886,1.765c0.446,0.403,1.203,0.519,1.842,0.594c0.111,0.013,0.415-0.794,0.463-1.239
		c0.107-1.006,0.043-2.032,0.173-3.034c0.138-1.065,1.143-1.658,2.409-1.595c0.884,0.044,1.343,0.562,1.303,1.358
		c-0.066,1.322-0.176,2.658-0.457,3.947c-0.265,1.217-0.775,2.38-1.206,3.651c0.365-0.059,0.688-0.111,1.004-0.161
		c0.093,0.153,0.177,0.245,0.21,0.352c0.435,1.451,0.642,1.484,1.89,0.683c0.67-0.43,1.484-0.637,2.359-0.997
		C139.334,254.891,139.419,254.605,139.321,254.515z M109.894,240.208c-1.235-0.481-2.389-1.172-3.576-1.777
		c0.048-0.137,0.095-0.275,0.143-0.412c1.223-0.533,2.407-1.305,3.852-0.807c0.445,0.153,1.028,0.439,1.173,0.81
		c0.264,0.676,0.247,1.462,0.347,2.201C111.182,240.231,110.457,240.427,109.894,240.208z M118.634,239.881
		c-0.066,0.26-0.451,0.578-0.727,0.619c-0.951,0.141-1.815-0.123-2.287-1.032c-0.358-0.688-0.592-1.44-0.887-2.161
		c-0.344-0.841,0-1.178,0.835-1.161C116.867,236.166,118.946,238.652,118.634,239.881z"/>
	<path style="fill:#3F45FF;" d="M136.212,259.602c-0.086,0.183-0.329,0.293-0.558,0.409c-0.076,0.039-0.151,0.078-0.218,0.121
		c-0.056-0.107-0.138-0.215-0.205-0.322c-0.067-0.107-0.118-0.214-0.113-0.318c0.027-0.602,0.144-1.2,0.226-1.799
		c-0.095-0.014-0.19-0.028-0.285-0.043c-0.163,0.508-0.424,1.006-0.474,1.525c-0.314,3.216-1.823,5.887-3.748,8.37
		c-2.235,2.882-4.549,5.706-6.722,8.634c-1.924,2.592-4.697,3.888-7.439,5.292c0.084-0.287,0.249-0.481,0.407-0.682
		c0.19-0.241,0.373-0.487,0.553-0.723c-1.042-1.02-2.147-0.732-2.599,0.565c-0.103,0.295-0.445,0.58-0.747,0.72
		c-1.159,0.539-2.431,0.883-3.503,1.552c-1.584,0.987-3.179,0.875-4.852,0.509c-0.249-0.054-0.539-0.154-0.757-0.079
		c-2.079,0.713-3.99,0.563-5.718-0.932c-0.343-0.296-0.843-0.405-1.261-0.62c-0.721-0.371-1.478-0.694-2.14-1.152
		c-1.034-0.715-2.008-0.625-2.825,0.615c-2.534-1.911-5.078-3.78-7.564-5.723c-1.302-1.018-2.502-2.165-3.613-3.137h1.078
		c-1.642-2.041-3.187-3.759-4.484-5.647c-0.823-1.199-1.872-1.364-3.394-1.489c0.469,1.06,0.706,1.96,1.21,2.672
		c2.104,2.978,4.111,6.054,6.496,8.796c2.086,2.399,4.807,4.176,7.755,5.442c2.216,0.952,4.548,1.629,6.799,2.505
		c4.159,1.619,8.459,1.49,12.754,0.973c1.806-0.217,3.538-0.987,5.338-1.318c1.923-0.354,3.693-1.014,5.38-1.968
		c3.863-2.183,7.379-4.851,10.374-8.099c1.764-1.914,3.204-4.15,4.611-6.355c0.412-0.646,0.134-1.698,0.309-2.536
		c0.284-1.364,0.556-2.753,1.065-4.04c0.489-1.237-0.315-2.19-0.444-3.332C136.547,258.509,136.453,259.09,136.212,259.602z"/>
	<path style="fill:#3F45FF;" d="M76.751,263.458c0.216-0.059,0.535-0.333,0.533-0.503c-0.016-1.116-0.043-2.24-0.196-3.343
		c-0.106-0.765-0.45-1.493-0.63-2.251c-0.315-1.322-2.171-2.407-3.599-2.024c-0.129,2.347,0.474,4.57,1.275,6.75
		C74.583,263.312,75.526,263.794,76.751,263.458z"/>
	<path style="fill:#3F45FF;" d="M116.51,276.653c0.094,0.282,0.579,0.638,0.862,0.613c0.672-0.059,1.485-0.138,1.955-0.542
		c1.363-1.169,2.648-2.445,3.839-3.789c0.777-0.877,0.707-3.372-0.02-4.276c-0.699,2.265-1.931,3.962-3.808,5.197
		c-0.85,0.559-1.674,1.168-2.448,1.827C116.646,275.891,116.424,276.392,116.51,276.653z"/>
	<path style="fill:#3F45FF;" d="M87.76,272.409c0.939,1.116,1.899,2.226,2.963,3.219c0.538,0.502,1.282,0.95,1.989,1.057
		c0.744,0.113,1.553-0.21,2.334-0.343c0.155-0.138,0.31-0.276,0.465-0.415c-0.37-0.146-0.784-0.228-1.102-0.448
		c-1.922-1.33-3.809-2.71-5.744-4.021c-0.286-0.194-0.76-0.11-1.146-0.154C87.592,271.679,87.545,272.154,87.76,272.409z"/>
	<path style="fill:#3F45FF;" d="M73.975,252.426c0.374-0.034,0.91-0.083,1.772-0.162c-0.379-1.262-0.67-2.373-1.06-3.448
		c-0.141-0.387-0.522-0.687-0.794-1.026c-0.337,0.401-0.833,0.75-0.982,1.212C72.497,250.285,72.546,251.528,73.975,252.426z"/>
	<path style="fill:#3F45FF;" d="M116.955,267.692c-1.039,0.198-1.59,0.835-1.913,1.832c-0.318,0.981,0.176,1.555,0.839,2.271
		c1.127-0.8,2.089-1.593,2.276-2.963C118.289,267.864,117.89,267.514,116.955,267.692z"/>
	<path style="fill:#3F45FF;" d="M128.858,257.642c-0.521-0.551-0.91-0.963-1.327-1.404c-1.501,0.27-3.041,1.729-3.454,3.361
		C126.105,259.919,127.198,258.206,128.858,257.642z"/>
	<path style="fill:#3F45FF;" d="M85.989,265.047c0.634,1.043,1.266,2.081,1.952,3.211C88.293,266.634,87.205,264.947,85.989,265.047
		z"/>
	<path style="fill:#3F45FF;" d="M75.048,240.676c-0.217,1.109-0.434,2.218-0.651,3.327
		C75.201,243.013,76.146,242.053,75.048,240.676z"/>
	<path style="fill:#3F45FF;" d="M84.925,272.471c-0.666-0.739-1.26-1.399-1.854-2.058C83.109,272.238,83.628,272.763,84.925,272.471
		z"/>
</g>
<rect x="238.846" y="144.936" style="fill:#002E3F;" width="5.097" height="173.651"/>
</svg>
